<svg width="23" height="23" viewBox="0 0 23 23" fill="none" xmlns="http://www.w3.org/2000/svg">
<g clip-path="url(#clip0_21_35)">
<path d="M20.8438 11.5C20.8438 13.9781 19.8593 16.3547 18.107 18.107C16.3547 19.8593 13.9781 20.8438 11.5 20.8438C9.02188 20.8438 6.64526 19.8593 4.89297 18.107C3.14068 16.3547 2.15625 13.9781 2.15625 11.5C2.15625 9.02188 3.14068 6.64526 4.89297 4.89297C6.64526 3.14068 9.02188 2.15625 11.5 2.15625C13.9781 2.15625 16.3547 3.14068 18.107 4.89297C19.8593 6.64526 20.8438 9.02188 20.8438 11.5ZM0 11.5C0 14.55 1.2116 17.4751 3.36827 19.6317C5.52494 21.7884 8.45001 23 11.5 23C14.55 23 17.4751 21.7884 19.6317 19.6317C21.7884 17.4751 23 14.55 23 11.5C23 8.45001 21.7884 5.52494 19.6317 3.36827C17.4751 1.2116 14.55 0 11.5 0C8.45001 0 5.52494 1.2116 3.36827 3.36827C1.2116 5.52494 0 8.45001 0 11.5ZM10.4219 5.39062V11.5C10.4219 11.8594 10.6016 12.1963 10.9025 12.3984L15.215 15.2734C15.7092 15.6059 16.3785 15.4711 16.7109 14.9725C17.0434 14.4738 16.9086 13.809 16.41 13.4766L12.5781 10.925V5.39062C12.5781 4.79316 12.0975 4.3125 11.5 4.3125C10.9025 4.3125 10.4219 4.79316 10.4219 5.39062Z" fill="#A1A1AA"/>
</g>
<defs>
<clipPath id="clip0_21_35">
<rect width="23" height="23" fill="white"/>
</clipPath>
</defs>
</svg>
