<svg width="8" height="33" viewBox="0 0 8 33" fill="none" xmlns="http://www.w3.org/2000/svg">
<path d="M4 22.725C3.07174 22.725 2.1815 23.0974 1.52513 23.7604C0.868749 24.4233 0.5 25.3225 0.5 26.26C0.5 27.1975 0.868749 28.0967 1.52513 28.7596C2.1815 29.4226 3.07174 29.795 4 29.795C4.92826 29.795 5.8185 29.4226 6.47487 28.7596C7.13125 28.0967 7.5 27.1975 7.5 26.26C7.5 25.3225 7.13125 24.4233 6.47487 23.7604C5.8185 23.0974 4.92826 22.725 4 22.725ZM4 12.625C3.07174 12.625 2.1815 12.9974 1.52513 13.6604C0.868749 14.3233 0.5 15.2225 0.5 16.16C0.5 17.0975 0.868749 17.9967 1.52513 18.6596C2.1815 19.3226 3.07174 19.695 4 19.695C4.92826 19.695 5.8185 19.3226 6.47487 18.6596C7.13125 17.9967 7.5 17.0975 7.5 16.16C7.5 15.2225 7.13125 14.3233 6.47487 13.6604C5.8185 12.9974 4.92826 12.625 4 12.625ZM7.5 6.06C7.5 5.12246 7.13125 4.22332 6.47487 3.56038C5.8185 2.89744 4.92826 2.525 4 2.525C3.07174 2.525 2.1815 2.89744 1.52513 3.56038C0.868749 4.22332 0.5 5.12246 0.5 6.06C0.5 6.99754 0.868749 7.89668 1.52513 8.55962C2.1815 9.22256 3.07174 9.595 4 9.595C4.92826 9.595 5.8185 9.22256 6.47487 8.55962C7.13125 7.89668 7.5 6.99754 7.5 6.06Z" fill="#A1A1AA"/>
</svg>
