<svg width="18" height="16" viewBox="0 0 18 16" fill="none" xmlns="http://www.w3.org/2000/svg">
<g clip-path="url(#clip0_2004_92)">
<path d="M8.99995 2.4375C6.96245 2.4375 5.28745 3.33937 4.00308 4.50023C2.79995 5.59101 1.9687 6.88594 1.5437 7.8C1.9687 8.71406 2.79995 10.009 3.99995 11.0998C5.28745 12.2606 6.96245 13.1625 8.99995 13.1625C11.0375 13.1625 12.7125 12.2606 13.9968 11.0998C15.2 10.009 16.0312 8.71406 16.4562 7.8C16.0312 6.88594 15.2 5.59101 14 4.50023C12.7125 3.33937 11.0375 2.4375 8.99995 2.4375ZM2.9812 3.43078C4.45308 2.09625 6.47495 0.974998 8.99995 0.974998C11.525 0.974998 13.5468 2.09625 15.0187 3.43078C16.4812 4.75617 17.4593 6.3375 17.925 7.42523C18.0281 7.66594 18.0281 7.93406 17.925 8.17476C17.4593 9.2625 16.4812 10.8469 15.0187 12.1692C13.5468 13.5037 11.525 14.625 8.99995 14.625C6.47495 14.625 4.45308 13.5037 2.9812 12.1692C1.5187 10.8469 0.540576 9.2625 0.0780762 8.17476C-0.0250488 7.93406 -0.0250488 7.66594 0.0780762 7.42523C0.540576 6.3375 1.5187 4.75312 2.9812 3.43078ZM8.99995 10.2375C10.3812 10.2375 11.5 9.14672 11.5 7.8C11.5 6.45328 10.3812 5.3625 8.99995 5.3625C8.97808 5.3625 8.95933 5.3625 8.93745 5.3625C8.97808 5.51789 8.99995 5.68242 8.99995 5.85C8.99995 6.92555 8.10308 7.8 6.99995 7.8C6.82808 7.8 6.65933 7.77867 6.49995 7.73906C6.49995 7.76039 6.49995 7.77867 6.49995 7.8C6.49995 9.14672 7.6187 10.2375 8.99995 10.2375ZM8.99995 3.9C10.0608 3.9 11.0782 4.31089 11.8284 5.04228C12.5785 5.77367 13 6.76565 13 7.8C13 8.83434 12.5785 9.82632 11.8284 10.5577C11.0782 11.2891 10.0608 11.7 8.99995 11.7C7.93909 11.7 6.92167 11.2891 6.17153 10.5577C5.42138 9.82632 4.99995 8.83434 4.99995 7.8C4.99995 6.76565 5.42138 5.77367 6.17153 5.04228C6.92167 4.31089 7.93909 3.9 8.99995 3.9Z" fill="#A1A1AA"/>
</g>
<defs>
<clipPath id="clip0_2004_92">
<rect width="18" height="15.6" fill="white"/>
</clipPath>
</defs>
</svg>
