<svg width="47" height="38" viewBox="0 0 47 38" fill="none" xmlns="http://www.w3.org/2000/svg">
<g clip-path="url(#clip0_2003_63)">
<path d="M10.575 0C12.1331 0 13.6275 0.625556 14.7293 1.73905C15.831 2.85255 16.45 4.36278 16.45 5.9375C16.45 7.51222 15.831 9.02245 14.7293 10.1359C13.6275 11.2494 12.1331 11.875 10.575 11.875C9.01685 11.875 7.52252 11.2494 6.42075 10.1359C5.31897 9.02245 4.7 7.51222 4.7 5.9375C4.7 4.36278 5.31897 2.85255 6.42075 1.73905C7.52252 0.625556 9.01685 0 10.575 0ZM37.6 0C39.1581 0 40.6525 0.625556 41.7542 1.73905C42.856 2.85255 43.475 4.36278 43.475 5.9375C43.475 7.51222 42.856 9.02245 41.7542 10.1359C40.6525 11.2494 39.1581 11.875 37.6 11.875C36.0419 11.875 34.5475 11.2494 33.4457 10.1359C32.344 9.02245 31.725 7.51222 31.725 5.9375C31.725 4.36278 32.344 2.85255 33.4457 1.73905C34.5475 0.625556 36.0419 0 37.6 0ZM0 22.1691C0 17.7977 3.51031 14.25 7.83578 14.25H10.9716C12.1392 14.25 13.2481 14.5098 14.2469 14.9699C14.1514 15.5043 14.1073 16.0609 14.1073 16.625C14.1073 19.4602 15.3411 22.0059 17.2872 23.75C17.2725 23.75 17.2578 23.75 17.2358 23.75H1.56422C0.705 23.75 0 23.0375 0 22.1691ZM29.7642 23.75C29.7495 23.75 29.7348 23.75 29.7128 23.75C31.6662 22.0059 32.8927 19.4602 32.8927 16.625C32.8927 16.0609 32.8412 15.5117 32.7531 14.9699C33.7519 14.5023 34.8608 14.25 36.0284 14.25H39.1642C43.4897 14.25 47 17.7977 47 22.1691C47 23.0449 46.295 23.75 45.4358 23.75H29.7716H29.7642ZM16.45 16.625C16.45 14.7353 17.1928 12.9231 18.5149 11.5869C19.837 10.2507 21.6302 9.5 23.5 9.5C25.3698 9.5 27.163 10.2507 28.4851 11.5869C29.8072 12.9231 30.55 14.7353 30.55 16.625C30.55 18.5147 29.8072 20.3269 28.4851 21.6631C27.163 22.9993 25.3698 23.75 23.5 23.75C21.6302 23.75 19.837 22.9993 18.5149 21.6631C17.1928 20.3269 16.45 18.5147 16.45 16.625ZM9.4 36.0184C9.4 30.5559 13.7842 26.125 19.1892 26.125H27.8034C33.2158 26.125 37.6 30.5559 37.6 36.0184C37.6 37.1094 36.7261 38 35.6392 38H11.3534C10.2739 38 9.39266 37.1168 9.39266 36.0184H9.4Z" fill="#A1A1AA"/>
</g>
<defs>
<clipPath id="clip0_2003_63">
<rect width="47" height="38" fill="white"/>
</clipPath>
</defs>
</svg>
