<svg width="142" height="24" viewBox="0 0 142 24" fill="none" xmlns="http://www.w3.org/2000/svg">
<g clip-path="url(#clip0_2005_105)">
<path d="M138.425 11.1208L138.822 10.7236L137.63 9.53177L135.447 7.34857L134.255 6.15677L133.858 6.55404L133.063 7.34857L126.06 14.3517C125.694 14.7173 125.427 15.1708 125.28 15.6665L124.035 19.8993C123.947 20.1947 124.028 20.5146 124.25 20.7326C124.471 20.9505 124.787 21.0314 125.083 20.947L129.312 19.7025C129.808 19.5548 130.261 19.2876 130.627 18.922L137.63 11.9189L138.425 11.1208ZM129.625 17.0411L129.305 17.8392C129.164 17.9482 129.006 18.029 128.837 18.0818L126.088 18.8904L126.897 16.1447C126.946 15.9724 127.03 15.8142 127.139 15.6771L127.937 15.3572V16.4822C127.937 16.7915 128.191 17.0447 128.5 17.0447H129.625V17.0411ZM136.751 3.65716L136.245 4.16693L135.45 4.96146L135.05 5.35872L136.241 6.55052L138.425 8.73372L139.616 9.92552L140.014 9.52826L140.808 8.73372L141.318 8.22396C142.197 7.34505 142.197 5.92122 141.318 5.04232L139.936 3.65716C139.057 2.77826 137.634 2.77826 136.755 3.65716H136.751ZM135.085 9.56341L130.022 14.6259C129.804 14.8439 129.446 14.8439 129.228 14.6259C129.01 14.4079 129.01 14.0493 129.228 13.8314L134.29 8.76888C134.508 8.55091 134.867 8.55091 135.085 8.76888C135.303 8.98685 135.303 9.34544 135.085 9.56341Z" fill="#A1A1AA"/>
</g>
<path d="M2.688 8.032V11.76H6.752V12.96H2.688V16.8H7.232V18H1.232V6.832H7.232V8.032H2.688ZM8.89113 13.584C8.89113 12.688 9.07246 11.904 9.43513 11.232C9.79779 10.5493 10.2938 10.0213 10.9231 9.648C11.5631 9.27467 12.2778 9.088 13.0671 9.088C13.7498 9.088 14.3845 9.248 14.9711 9.568C15.5578 9.87733 16.0058 10.288 16.3151 10.8V6.16H17.7871V18H16.3151V16.352C16.0271 16.8747 15.6005 17.3067 15.0351 17.648C14.4698 17.9787 13.8085 18.144 13.0511 18.144C12.2725 18.144 11.5631 17.952 10.9231 17.568C10.2938 17.184 9.79779 16.6453 9.43513 15.952C9.07246 15.2587 8.89113 14.4693 8.89113 13.584ZM16.3151 13.6C16.3151 12.9387 16.1818 12.3627 15.9151 11.872C15.6485 11.3813 15.2858 11.008 14.8271 10.752C14.3791 10.4853 13.8831 10.352 13.3391 10.352C12.7951 10.352 12.2991 10.48 11.8511 10.736C11.4031 10.992 11.0458 11.3653 10.7791 11.856C10.5125 12.3467 10.3791 12.9227 10.3791 13.584C10.3791 14.256 10.5125 14.8427 10.7791 15.344C11.0458 15.8347 11.4031 16.2133 11.8511 16.48C12.2991 16.736 12.7951 16.864 13.3391 16.864C13.8831 16.864 14.3791 16.736 14.8271 16.48C15.2858 16.2133 15.6485 15.8347 15.9151 15.344C16.1818 14.8427 16.3151 14.2613 16.3151 13.6ZM20.9996 7.808C20.7223 7.808 20.4876 7.712 20.2956 7.52C20.1036 7.328 20.0076 7.09333 20.0076 6.816C20.0076 6.53867 20.1036 6.304 20.2956 6.112C20.4876 5.92 20.7223 5.824 20.9996 5.824C21.2663 5.824 21.4903 5.92 21.6716 6.112C21.8636 6.304 21.9596 6.53867 21.9596 6.816C21.9596 7.09333 21.8636 7.328 21.6716 7.52C21.4903 7.712 21.2663 7.808 20.9996 7.808ZM21.7036 9.232V18H20.2476V9.232H21.7036ZM25.9611 10.432V15.6C25.9611 16.0267 26.0518 16.3307 26.2331 16.512C26.4145 16.6827 26.7291 16.768 27.1771 16.768H28.2491V18H26.9371C26.1265 18 25.5185 17.8133 25.1131 17.44C24.7078 17.0667 24.5051 16.4533 24.5051 15.6V10.432H23.3691V9.232H24.5051V7.024H25.9611V9.232H28.2491V10.432H25.9611Z" fill="#A1A1AA"/>
<defs>
<clipPath id="clip0_2005_105">
<rect width="18" height="18" fill="white" transform="translate(124 3)"/>
</clipPath>
</defs>
</svg>
