<svg width="18" height="18" viewBox="0 0 18 18" fill="none" xmlns="http://www.w3.org/2000/svg">
<g clip-path="url(#clip0_2006_146)">
<path d="M14.4247 8.12078L14.8219 7.72351L13.6301 6.53171L11.4469 4.34851L10.2551 3.15671L9.85787 3.55398L9.06334 4.34851L2.06021 11.3516C1.69459 11.7173 1.4274 12.1708 1.27974 12.6665L0.0352121 16.8993C-0.0526785 17.1946 0.0281808 17.5145 0.249665 17.7325C0.47115 17.9505 0.787556 18.0313 1.08287 17.9469L5.31217 16.7024C5.80787 16.5548 6.26138 16.2876 6.62701 15.9219L13.6301 8.91882L14.4247 8.12078ZM5.62506 14.0411L5.30513 14.8391C5.16451 14.9481 5.00631 15.029 4.83756 15.0817L2.08834 15.8903L2.89693 13.1446C2.94615 12.9723 3.03052 12.8141 3.13951 12.677L3.93756 12.3571V13.4821C3.93756 13.7915 4.19068 14.0446 4.50006 14.0446H5.62506V14.0411ZM12.7512 0.657104L12.245 1.16687L11.4504 1.9614L11.0497 2.35867L12.2415 3.55046L14.4247 5.73367L15.6165 6.92546L16.0137 6.5282L16.8083 5.73367L17.318 5.2239C18.1969 4.345 18.1969 2.92117 17.318 2.04226L15.9364 0.657104C15.0575 -0.221802 13.6336 -0.221802 12.7547 0.657104H12.7512ZM11.0848 6.56335L6.02232 11.6259C5.80435 11.8438 5.44576 11.8438 5.22779 11.6259C5.00982 11.4079 5.00982 11.0493 5.22779 10.8313L10.2903 5.76882C10.5083 5.55085 10.8669 5.55085 11.0848 5.76882C11.3028 5.98679 11.3028 6.34539 11.0848 6.56335Z" fill="#A1A1AA"/>
</g>
<defs>
<clipPath id="clip0_2006_146">
<rect width="18" height="18" fill="white"/>
</clipPath>
</defs>
</svg>
