<svg width="18" height="21" viewBox="0 0 18 21" fill="none" xmlns="http://www.w3.org/2000/svg">
<g clip-path="url(#clip0_2004_88)">
<path d="M12.5679 0.715605C12.3509 0.274922 11.9049 0 11.4187 0H6.58125C6.09509 0 5.64911 0.274922 5.43214 0.715605L5.14286 1.29375H1.28572C0.574554 1.29375 0 1.87189 0 2.5875C0 3.30311 0.574554 3.88125 1.28572 3.88125H16.7143C17.4254 3.88125 18 3.30311 18 2.5875C18 1.87189 17.4254 1.29375 16.7143 1.29375H12.8571L12.5679 0.715605ZM16.7143 5.175H1.28572V18.1125C1.28572 19.5397 2.43884 20.7 3.85714 20.7H14.1429C15.5612 20.7 16.7143 19.5397 16.7143 18.1125V5.175ZM12.8571 7.7625C13.2107 7.7625 13.5 8.05359 13.5 8.40938V17.4656C13.5 17.8214 13.2107 18.1125 12.8571 18.1125C12.5036 18.1125 12.2143 17.8214 12.2143 17.4656V8.40938C12.2143 8.05359 12.5036 7.7625 12.8571 7.7625ZM9 7.7625C9.35357 7.7625 9.64286 8.05359 9.64286 8.40938V17.4656C9.64286 17.8214 9.35357 18.1125 9 18.1125C8.64643 18.1125 8.35714 17.8214 8.35714 17.4656V8.40938C8.35714 8.05359 8.64643 7.7625 9 7.7625ZM5.14286 7.7625C5.49643 7.7625 5.78571 8.05359 5.78571 8.40938V17.4656C5.78571 17.8214 5.49643 18.1125 5.14286 18.1125C4.78929 18.1125 4.5 17.8214 4.5 17.4656V8.40938C4.5 8.05359 4.78929 7.7625 5.14286 7.7625Z" fill="#A1A1AA"/>
</g>
<defs>
<clipPath id="clip0_2004_88">
<rect width="18" height="20.7" fill="white" transform="matrix(-1 0 0 1 18 0)"/>
</clipPath>
</defs>
</svg>
